<svg width="768" height="289" viewBox="0 0 768 289" fill="none" xmlns="http://www.w3.org/2000/svg">
<g clip-path="url(#clip0_15_22)">
<mask id="mask0_15_22" style="mask-type:luminance" maskUnits="userSpaceOnUse" x="0" y="0" width="768" height="289">
<path d="M768 0H0V289H768V0Z" fill="white"/>
</mask>
<g mask="url(#mask0_15_22)">
<path d="M768 0H0V289H768V0Z" fill="white"/>
<g filter="url(#filter0_f_15_22)">
<path fill-rule="evenodd" clip-rule="evenodd" d="M623.144 382.511C594.422 406.369 559.488 419.58 523.463 429.906C468.263 445.729 406.707 483.034 357.779 458.576C310.661 435.021 289.531 370.294 301.776 319.086C314.123 267.453 390.626 252.38 418.277 205.576C437.038 173.817 409.612 131.984 430.425 101.318C452.753 68.4178 493.18 50.8324 531.814 38.2798C575.215 24.1786 619.693 21.2446 664.223 25.3548C723.14 30.7928 819.003 11.3412 831.337 65.9258C845.999 130.811 750.254 175.951 711.474 234.458C695.862 258.012 686.123 282.593 671.697 306.774C656.053 332.995 647.137 362.581 623.144 382.511Z" fill="url(#paint0_linear_15_22)"/>
</g>
<g filter="url(#filter1_f_15_22)">
<path fill-rule="evenodd" clip-rule="evenodd" d="M208.144 129.511C179.422 153.369 144.488 166.58 108.463 176.906C53.2627 192.729 -8.29333 230.034 -57.2208 205.576C-104.339 182.021 -125.469 117.294 -113.224 66.0857C-100.877 14.4531 -24.3736 -0.619682 3.27669 -47.4244C22.0384 -79.1831 -5.3875 -121.016 15.4246 -151.682C37.7526 -184.582 78.18 -202.168 116.814 -214.72C160.215 -228.821 204.693 -231.755 249.223 -227.645C308.14 -222.207 404.003 -241.659 416.337 -187.074C430.999 -122.189 335.254 -77.0492 296.474 -18.5422C280.862 5.01144 271.123 29.5934 256.697 53.7735C241.053 79.9946 232.137 109.581 208.144 129.511Z" fill="url(#paint1_linear_15_22)"/>
</g>
</g>
</g>
<defs>
<filter id="filter0_f_15_22" x="198.36" y="-76.3528" width="734.491" height="643.019" filterUnits="userSpaceOnUse" color-interpolation-filters="sRGB">
<feFlood flood-opacity="0" result="BackgroundImageFix"/>
<feBlend mode="normal" in="SourceGraphic" in2="BackgroundImageFix" result="shape"/>
<feGaussianBlur stdDeviation="50" result="effect1_foregroundBlur_15_22"/>
</filter>
<filter id="filter1_f_15_22" x="-216.64" y="-329.353" width="734.491" height="643.019" filterUnits="userSpaceOnUse" color-interpolation-filters="sRGB">
<feFlood flood-opacity="0" result="BackgroundImageFix"/>
<feBlend mode="normal" in="SourceGraphic" in2="BackgroundImageFix" result="shape"/>
<feGaussianBlur stdDeviation="50" result="effect1_foregroundBlur_15_22"/>
</filter>
<linearGradient id="paint0_linear_15_22" x1="563.122" y1="401.419" x2="502.284" y2="52.8881" gradientUnits="userSpaceOnUse">
<stop stop-color="#6823FF"/>
<stop offset="1" stop-color="white" stop-opacity="0"/>
</linearGradient>
<linearGradient id="paint1_linear_15_22" x1="148.122" y1="148.419" x2="87.2843" y2="-200.112" gradientUnits="userSpaceOnUse">
<stop stop-color="#6823FF"/>
<stop offset="1" stop-color="white" stop-opacity="0"/>
</linearGradient>
<clipPath id="clip0_15_22">
<rect width="768" height="289" fill="white"/>
</clipPath>
</defs>
</svg>
