<svg width="1920" height="352" viewBox="0 0 1920 352" fill="none" xmlns="http://www.w3.org/2000/svg">
<g clip-path="url(#clip0_15_11)">
<mask id="mask0_15_11" style="mask-type:luminance" maskUnits="userSpaceOnUse" x="0" y="0" width="1920" height="352">
<path d="M1920 0H0V352H1920V0Z" fill="white"/>
</mask>
<g mask="url(#mask0_15_11)">
<path d="M1924 0H0V352H1924V0Z" fill="white"/>
<g filter="url(#filter0_f_15_11)">
<path fill-rule="evenodd" clip-rule="evenodd" d="M493.144 262.511C464.422 286.369 429.488 299.58 393.463 309.906C338.263 325.729 276.707 363.034 227.779 338.576C180.661 315.021 159.531 250.294 171.776 199.086C184.123 147.453 260.626 132.38 288.277 85.5757C307.038 53.817 279.612 11.9841 300.425 -18.6822C322.753 -51.5822 363.18 -69.1676 401.814 -81.7202C445.215 -95.8214 489.693 -98.7554 534.223 -94.6452C593.14 -89.2072 689.003 -108.659 701.337 -54.0742C715.999 10.8114 620.254 55.9509 581.474 114.458C565.862 138.012 556.123 162.593 541.697 186.774C526.053 212.995 517.137 242.581 493.144 262.511Z" fill="url(#paint0_linear_15_11)"/>
</g>
<g filter="url(#filter1_f_15_11)">
<path fill-rule="evenodd" clip-rule="evenodd" d="M1576.14 326.511C1547.42 350.369 1512.49 363.58 1476.46 373.906C1421.26 389.729 1359.71 427.034 1310.78 402.576C1263.66 379.021 1242.53 314.294 1254.78 263.086C1267.12 211.453 1343.63 196.38 1371.28 149.576C1390.04 117.817 1362.61 75.9841 1383.42 45.3178C1405.75 12.4178 1446.18 -5.16764 1484.81 -17.7202C1528.21 -31.8214 1572.69 -34.7554 1617.22 -30.6452C1676.14 -25.2072 1772 -44.6588 1784.34 9.92576C1799 74.8114 1703.25 119.951 1664.47 178.458C1648.86 202.012 1639.12 226.593 1624.7 250.774C1609.05 276.995 1600.14 306.581 1576.14 326.511Z" fill="url(#paint1_linear_15_11)"/>
</g>
</g>
</g>
<defs>
<filter id="filter0_f_15_11" x="68.3595" y="-196.353" width="734.491" height="643.019" filterUnits="userSpaceOnUse" color-interpolation-filters="sRGB">
<feFlood flood-opacity="0" result="BackgroundImageFix"/>
<feBlend mode="normal" in="SourceGraphic" in2="BackgroundImageFix" result="shape"/>
<feGaussianBlur stdDeviation="50" result="effect1_foregroundBlur_15_11"/>
</filter>
<filter id="filter1_f_15_11" x="1151.36" y="-132.353" width="734.492" height="643.019" filterUnits="userSpaceOnUse" color-interpolation-filters="sRGB">
<feFlood flood-opacity="0" result="BackgroundImageFix"/>
<feBlend mode="normal" in="SourceGraphic" in2="BackgroundImageFix" result="shape"/>
<feGaussianBlur stdDeviation="50" result="effect1_foregroundBlur_15_11"/>
</filter>
<linearGradient id="paint0_linear_15_11" x1="433.122" y1="281.419" x2="372.284" y2="-67.1119" gradientUnits="userSpaceOnUse">
<stop stop-color="#6823FF"/>
<stop offset="1" stop-color="white" stop-opacity="0"/>
</linearGradient>
<linearGradient id="paint1_linear_15_11" x1="1516.12" y1="345.419" x2="1455.28" y2="-3.11197" gradientUnits="userSpaceOnUse">
<stop stop-color="#6823FF"/>
<stop offset="1" stop-color="white" stop-opacity="0"/>
</linearGradient>
<clipPath id="clip0_15_11">
<rect width="1920" height="352" fill="white"/>
</clipPath>
</defs>
</svg>
